<?xml version="1.0" ?><!DOCTYPE svg  PUBLIC '-//W3C//DTD SVG 1.1//EN'  'http://www.w3.org/Graphics/SVG/1.1/DTD/svg11.dtd'><svg enable-background="new 0 0 50 50" id="Layer_1" version="1.1" viewBox="0 0 50 50" xml:space="preserve" xmlns="http://www.w3.org/2000/svg" xmlns:xlink="http://www.w3.org/1999/xlink"><path d="M31.9,16c-1.5-1-3.6-2-5-3c-0.9-0.6-2-1.8-3-3c-0.2,2-0.3,2.4-1,3c-1.5,1.2-3,1.9-4.2,2.6  c-1.6,0.8-6.8,3.9-6.8,11.4c0,7.5,6.2,13,13.1,13c7,0,13-5.1,13-12.7C38.1,19.6,32.9,16.6,31.9,16z M31.6,37.3  c-0.1,0.1-1.5,1.1-3,1.2s-3.7,0.2-4.9-0.9c-0.2-0.2-0.1-0.5,0-0.6c0.1-0.1,0.3-0.2,0.4-0.2s0.1,0,0.2,0.1c0.6,0.5,1.4,0.8,3.3,0.8  c1.9,0,3.1-0.5,3.7-1c0.3-0.2,0.4,0,0.4,0.1C31.8,36.9,31.8,37.1,31.6,37.3z M26.6,34.7c0.3-0.3,0.8-0.8,1.3-1  c0.5-0.2,0.8-0.2,1.2-0.2c0.5,0,1,0,1.3,0.3c0.3,0.2,0.5,0.8,0.7,1s0,0.5-0.2,0.6c-0.2,0.1-0.2,0.1-0.4-0.3  c-0.2-0.4-0.4-0.8-1.4-0.8s-1.3,0.3-1.8,0.8c-0.5,0.4-0.7,0.6-0.8,0.3C26.2,35.2,26.3,34.9,26.6,34.7z M33.9,35c-1-0.1-2.7-2.9-4-3  c-1.7-0.1-5.1,3-8,3c-1.7,0-2.4-0.6-3-1c-0.9-0.6-2-1.7-2-3c0-2.3,2.3-4,5-4c3.4,0,6.3,3,8,3c1.4,0,3.6-3,5-3c1.4,0,2,2.1,2,3  s-0.1,2.5-0.8,3.6C35.5,34.6,34.7,35.1,33.9,35z" fill="#1886C9" id="Drupicon_2_"/><path d="M25,1C11.7,1,1,11.7,1,25s10.7,24,24,24s24-10.7,24-24S38.3,1,25,1z M25,44C14.5,44,6,35.5,6,25S14.5,6,25,6  s19,8.5,19,19S35.5,44,25,44z" fill="#1886C9"/></svg>